<svg width="37" height="39" viewBox="0 0 37 39" fill="none" xmlns="http://www.w3.org/2000/svg">
<path d="M28.0781 33.1931L26.8429 28.8221C17.5987 36.9951 9.90993 29.471 8.50828 27.3106L9.22088 26.8705C9.53589 26.6752 9.72025 26.324 9.70083 25.9537C9.68154 25.5838 9.46183 25.2533 9.12818 25.0922L2.73529 22.0105C2.59546 21.9428 2.4454 21.9093 2.29522 21.9093C2.10968 21.9093 1.9248 21.9608 1.76167 22.0614C1.4666 22.2431 1.28495 22.5626 1.27978 22.9092L1.17089 30.0058C1.16506 30.3762 1.36225 30.7203 1.68424 30.9039C1.84026 30.9922 2.01297 31.036 2.18555 31.036C2.37057 31.036 2.55545 30.9856 2.71911 30.8846L3.06 30.674C8.92129 40.1826 22.3738 41.1142 29.6552 34.9064C28.8912 34.6087 28.303 33.9907 28.0781 33.1931Z" fill="black"/>
<path d="M6.49309 22.0407C5.74099 17.9663 8.44577 9.68011 17.4225 8.70416V8.8124C17.4225 9.18281 17.6249 9.52436 17.9496 9.70225C18.1016 9.78602 18.2699 9.82719 18.4373 9.82719C18.6275 9.82719 18.8174 9.77372 18.9838 9.66742L24.9649 5.84803C25.2575 5.6612 25.4339 5.33908 25.4339 4.99248C25.4339 4.64576 25.2575 4.32363 24.9655 4.13681L18.9837 0.316506C18.8174 0.21021 18.6274 0.156738 18.4372 0.156738C18.2698 0.156738 18.1015 0.19791 17.9495 0.281678C17.6247 0.459571 17.4224 0.800986 17.4224 1.17153V2.29003C8.70329 2.25274 -0.570204 10.4959 0.027434 21.6142C0.027434 21.6142 1.37717 20.305 2.29538 20.305C3.06741 20.305 3.20556 20.4562 6.49309 22.0407Z" fill="black"/>
<path d="M36.978 27.6499C36.9013 27.2871 36.6333 26.9946 36.2782 26.8877L35.5464 26.6667C37.6985 20.6424 36.9999 10.2488 26.9693 4.4431C27.0073 4.62216 27.0382 4.80394 27.0382 4.99206C27.0382 5.89085 26.5858 6.71623 25.8282 7.20006L22.374 9.4056C25.4339 10.2887 32.4272 15.7409 29.4009 24.8123L28.9628 24.6802C28.8662 24.6513 28.7676 24.6364 28.6696 24.6364C28.4074 24.6364 28.1509 24.739 27.959 24.9276C27.6943 25.1872 27.5924 25.5706 27.6928 25.9275L29.6218 32.7566C29.7159 33.0899 29.9736 33.3521 30.3048 33.4525C30.4007 33.4814 30.4999 33.4956 30.598 33.4956C30.837 33.4956 31.0722 33.4104 31.259 33.2507L36.6455 28.6297C36.9271 28.3884 37.0546 28.0127 36.978 27.6499Z" fill="black"/>
</svg>
