<svg width="45" height="45" viewBox="0 0 45 45" fill="none" xmlns="http://www.w3.org/2000/svg">
<path d="M22.5105 18.1804C23.2831 18.1804 24.0385 18.4091 24.6815 18.8375C25.3246 19.266 25.8264 19.8751 26.124 20.5881C26.4216 21.3012 26.5015 22.0864 26.3538 22.8448C26.2061 23.6032 25.8373 24.301 25.2938 24.8503C24.7504 25.3995 24.0566 25.7757 23.2997 25.9315C22.5429 26.0873 21.757 26.0157 21.0408 25.7257C20.3246 25.4358 19.7101 24.9404 19.2749 24.302C18.8396 23.6636 18.603 22.9107 18.5947 22.138C18.5919 21.6211 18.691 21.1086 18.8863 20.6299C19.0816 20.1512 19.3693 19.7157 19.7329 19.3482C20.0965 18.9807 20.529 18.6884 21.0055 18.4881C21.4821 18.2877 21.9935 18.1831 22.5105 18.1804ZM12.8153 38.89C14.1345 39.6857 17.0033 38.4712 20.3537 35.3302C19.2338 34.0577 18.1785 32.7298 17.1917 31.3516C15.5028 31.1625 13.8251 30.8829 12.1661 30.514C11.0982 34.9952 11.496 38.0734 12.8153 38.89ZM14.302 26.8705L13.6947 25.8025C13.458 26.3907 13.2553 26.992 13.0875 27.6034C13.6529 27.729 14.2811 27.8337 14.9302 27.9384L14.302 26.8705ZM27.9967 25.279L29.6929 22.138L27.9967 18.997C27.3685 17.8872 26.6985 16.903 26.0912 15.9189C24.9604 15.856 23.7669 15.856 22.5105 15.856C21.2541 15.856 20.0605 15.856 18.9297 15.856C18.3225 16.8402 17.6524 17.8244 17.0242 18.9342L15.3281 22.138L17.0242 25.279C17.6524 26.3889 18.3225 27.373 18.9297 28.3572C20.0605 28.3572 21.2541 28.3572 22.5105 28.3572C23.7669 28.3572 24.9604 28.3572 26.0912 28.3572C26.6985 27.373 27.3685 26.3889 27.9967 25.279ZM22.5105 11.2074C22.1126 11.6681 21.6938 12.1497 21.275 12.7151H23.7459C23.3271 12.1497 22.9083 11.6681 22.5105 11.2074ZM22.5105 33.0687C22.9083 32.608 23.3271 32.1264 23.7459 31.561H21.275C21.6938 32.1264 22.1126 32.608 22.5105 33.0687ZM32.1847 5.38606C30.8865 4.59034 27.9967 5.80486 24.6673 8.94586C25.7871 10.2184 26.8424 11.5462 27.8292 12.9245C29.5167 13.0859 31.1943 13.3376 32.8548 13.6783C33.9228 9.19714 33.5249 6.11896 32.1847 5.3023M30.7189 17.3218L31.3262 18.3898C31.5629 17.8016 31.7657 17.2004 31.9335 16.5889C31.3681 16.4633 30.7399 16.3586 30.0907 16.2539L30.7189 17.3218ZM33.7552 2.66387C36.8334 4.42282 37.1685 9.05056 35.8492 14.4531C41.168 16.0236 45 18.6411 45 22.159C45 25.6769 41.168 28.2944 35.8492 29.8649C37.1475 35.2674 36.8125 39.8951 33.7552 41.6541C30.698 43.4131 26.5309 41.4028 22.5105 37.5708C18.49 41.4028 14.3229 43.4131 11.2448 41.6541C8.16659 39.8951 7.85249 35.3721 9.15077 29.8649C3.83201 28.2944 0 25.6769 0 22.159C0 18.6411 3.83201 16.0026 9.15077 14.4321C7.85249 9.02962 8.18753 4.40188 11.2448 2.64293C14.302 0.883969 18.49 2.89421 22.5105 6.72622C26.5309 2.89421 30.698 0.883969 33.7552 2.64293M33.148 22.138C33.8752 23.6795 34.5183 25.2593 35.0745 26.8705C39.4718 25.5513 41.9428 23.6667 41.9428 22.138C41.9428 20.6094 39.409 18.7248 35.0745 17.4056C34.5183 19.0168 33.8752 20.5966 33.148 22.138ZM11.873 22.138C11.1457 20.5966 10.5026 19.0168 9.94649 17.4056C5.54909 18.7248 3.07818 20.6094 3.07818 22.138C3.07818 23.6667 5.61191 25.5513 9.94649 26.8705C10.5026 25.2593 11.1457 23.6795 11.873 22.138ZM30.7189 26.8705L30.0907 27.9384C30.7399 27.9384 31.3681 27.729 31.9335 27.6034C31.7657 26.992 31.5629 26.3907 31.3262 25.8025L30.7189 26.8705ZM24.6045 35.3302C27.9339 38.4712 30.8865 39.6857 32.1219 38.89C33.3574 38.0943 33.8599 35.0789 32.792 30.514C31.1314 30.8547 29.4538 31.1064 27.7664 31.2679C26.7819 32.6746 25.7265 34.0305 24.6045 35.3302ZM14.302 17.4056L14.9302 16.3377C14.2811 16.3377 13.6529 16.5471 13.0875 16.6727C13.2553 17.2841 13.458 17.8854 13.6947 18.4735L14.302 17.4056ZM20.4165 8.94586C17.0242 5.80486 14.1345 4.59034 12.8153 5.38606C11.496 6.18178 11.0982 9.19714 12.1661 13.7621C13.8267 13.4213 15.5043 13.1697 17.1917 13.0082C18.1966 11.6 19.273 10.2441 20.4165 8.94586Z" fill="black"/>
</svg>
