<svg width="45" height="45" viewBox="0 0 45 45" fill="none" xmlns="http://www.w3.org/2000/svg">
<path fill-rule="evenodd" clip-rule="evenodd" d="M22.5 0C10.0736 0 0 10.0736 0 22.5C0 34.9264 10.0736 45 22.5 45C34.9264 45 45 34.9264 45 22.5C45 10.0736 34.9264 0 22.5 0ZM23 13C18.4667 13 15.6333 15.2222 14.5 19.6667C16.2 17.4444 18.1833 16.6111 20.45 17.1667C21.7433 17.4836 22.6676 18.4035 23.6908 19.4217C25.3575 21.0803 27.2866 23 31.5 23C36.0333 23 38.8667 20.7778 40 16.3333C38.3 18.5556 36.3167 19.3889 34.05 18.8333C32.7567 18.5164 31.8324 17.5965 30.8092 16.5783C29.1425 14.9197 27.2134 13 23 13ZM14.5 23C9.96667 23 7.13333 25.2222 6 29.6667C7.7 27.4444 9.68333 26.6111 11.95 27.1667C13.2433 27.4836 14.1676 28.4035 15.1908 29.4217C16.8575 31.0803 18.7866 33 23 33C27.5333 33 30.3667 30.7778 31.5 26.3333C29.8 28.5556 27.8167 29.3889 25.55 28.8333C24.2567 28.5164 23.3324 27.5965 22.3092 26.5783C20.6425 24.9197 18.7134 23 14.5 23Z" fill="black"/>
</svg>
