<svg width="23" height="63" viewBox="0 0 23 63" fill="none" xmlns="http://www.w3.org/2000/svg">
<path fill-rule="evenodd" clip-rule="evenodd" d="M22.9998 11.215V25.8211H18.1456L18.1457 13.3288C18.1462 12.1923 18.1471 10.4318 17.3953 8.95613C16.9892 8.15898 16.3651 7.439 15.4374 6.93046C14.5222 6.42874 13.3821 6.17119 11.9943 6.17119C10.5963 6.17119 9.44882 6.42814 8.52784 6.92824C7.59404 7.4353 6.96427 8.15409 6.55381 8.95215C5.79398 10.4295 5.79491 12.1922 5.7955 13.3286L5.79553 25.8211L0.941345 25.8211V11.215C0.941345 7.97956 2.04263 5.33635 3.91873 3.5022C5.79643 1.66648 8.54262 0.551514 11.9943 0.551514C15.4457 0.551514 18.1787 1.66617 20.0439 3.49992C21.9081 5.33276 22.9998 7.97617 22.9998 11.215ZM0.941406 52.1108L0.941407 37.5046H5.7956L5.79556 49.9969C5.79498 51.1334 5.79407 52.8939 6.5459 54.3696C6.95201 55.1668 7.57611 55.8868 8.50379 56.3953C9.41904 56.897 10.5591 57.1546 11.9469 57.1546C13.3449 57.1546 14.4924 56.8976 15.4134 56.3975C16.3472 55.8905 16.977 55.1717 17.3874 54.3736C18.1472 52.8963 18.1463 51.1336 18.1457 49.9971L18.1457 37.5046H22.9999L22.9999 52.1108C22.9999 55.3462 21.8986 57.9894 20.0225 59.8236C18.1448 61.6593 15.3986 62.7743 11.9469 62.7743C8.49552 62.7743 5.76256 61.6596 3.89735 59.8258C2.03308 57.993 0.941406 55.3496 0.941406 52.1108ZM13.7104 12.9932C13.7104 12.0313 12.9306 11.2515 11.9688 11.2515C11.0069 11.2515 10.2271 12.0313 10.2271 12.9932L10.2271 50.1481C10.2271 51.1099 11.0069 51.8897 11.9688 51.8897C12.9306 51.8897 13.7104 51.1099 13.7104 50.1481L13.7104 12.9932Z" fill="black"/>
</svg>
