<svg width="1321" height="151" viewBox="0 0 1321 151" fill="none" xmlns="http://www.w3.org/2000/svg">
<path d="M1003.7 0V32.0776H931.476V148.704H893.238V32.0776H821.01V0H1003.7Z" fill="white"/>
<path d="M1065.14 0V148.704H1026.9V0H1065.14Z" fill="white"/>
<path d="M1320.43 148.704V0H1268.81L1206.57 104.943L1144.32 0H1092.7V148.704H1130.94V46.7356L1192.76 148.704H1220.38L1282.19 46.7356V148.704H1320.43Z" fill="white"/>
<path d="M13.4985 1.1394H138.129L75.8138 107.414L13.4985 1.1394Z" fill="white"/>
<path d="M61.4346 150.894H0V48.3906L61.4346 150.894Z" fill="white"/>
<path d="M151.628 150.894H90.193L151.628 48.3906V150.894Z" fill="white"/>
<path d="M199.574 150.894H189.96V1.1394H275.925L199.574 150.894Z" fill="white"/>
<path d="M404.379 150.894L327.817 1.1394H413.999V150.894H404.379Z" fill="white"/>
<path d="M588.201 56.3609C588.201 24.3177 567.095 3.04687 535.777 1.1394H600.755V150.894H582.753L555.831 106.983C575.849 99.0128 588.201 80.9181 588.201 56.3609Z" fill="white"/>
<path d="M639.088 79.1947V1.1394H745.165L639.088 79.1947Z" fill="white"/>
<path d="M713.198 67.9932L803.305 1.1394H803.643V150.894H802.528L713.198 67.9932Z" fill="white"/>
<path d="M684.875 89.1038L749.529 150.894H639.088V122.924L684.875 89.1038Z" fill="white"/>
<path d="M514.091 111.507L537.62 150.894H452.332V111.507H514.091Z" fill="white"/>
<path d="M346.486 119.693L362.012 150.894H241.729L257.256 119.693H346.486Z" fill="white"/>
<path d="M271.524 90.8271H332.218L301.977 29.6495L271.524 90.8271Z" fill="white"/>
<path d="M452.332 78.9793V33.527H520.479C531.979 33.527 549.868 33.527 549.868 56.3609C549.868 78.9793 531.979 78.9793 520.479 78.9793H452.332Z" fill="white"/>
</svg>
