<svg width="46" height="45" viewBox="0 0 46 45" fill="none" xmlns="http://www.w3.org/2000/svg">
<path d="M18.4134 24.712H13.5414L15.9654 17.728L18.4134 24.712Z" fill="black"/>
<path d="M29.2071 21.952C29.7831 21.52 30.4471 21.304 31.1991 21.304C31.9831 21.304 32.6391 21.536 33.1671 22C33.6951 22.464 33.9831 23.088 34.0311 23.872H28.1031C28.2631 23.008 28.6311 22.368 29.2071 21.952Z" fill="black"/>
<path fill-rule="evenodd" clip-rule="evenodd" d="M10.3701 0C4.84727 0 0.370117 4.47715 0.370117 10V35C0.370117 40.5228 4.84727 45 10.3701 45H35.3701C40.893 45 45.3701 40.5228 45.3701 35V10C45.3701 4.47715 40.893 0 35.3701 0H10.3701ZM14.2614 14.2L8.11743 31H11.3334L12.7014 27.112H19.2534L20.5974 31H23.8614L17.7174 14.2H14.2614ZM27.9831 30.52C28.9111 31.032 29.9751 31.288 31.1751 31.288C32.1351 31.288 32.9911 31.112 33.7431 30.76C34.5111 30.408 35.1511 29.928 35.6631 29.32C36.1911 28.696 36.5671 28.008 36.7911 27.256H33.6711C33.4631 27.704 33.1431 28.072 32.7111 28.36C32.2951 28.632 31.7751 28.768 31.1511 28.768C30.3191 28.768 29.6071 28.504 29.0151 27.976C28.4391 27.448 28.1191 26.72 28.0551 25.792H37.1031C37.1191 25.584 37.1271 25.384 37.1271 25.192C37.1431 25 37.1511 24.816 37.1511 24.64C37.1511 23.552 36.8951 22.568 36.3831 21.688C35.8871 20.792 35.1911 20.088 34.2951 19.576C33.3991 19.064 32.3671 18.808 31.1991 18.808C29.9511 18.808 28.8631 19.08 27.9351 19.624C27.0231 20.152 26.3031 20.896 25.7751 21.856C25.2631 22.816 25.0071 23.912 25.0071 25.144C25.0071 26.36 25.2711 27.432 25.7991 28.36C26.3271 29.288 27.0551 30.008 27.9831 30.52Z" fill="black"/>
</svg>
