<svg width="46" height="46" viewBox="0 0 46 46" fill="none" xmlns="http://www.w3.org/2000/svg">
<path fill-rule="evenodd" clip-rule="evenodd" d="M20.4722 23.297C20.4644 24.6964 20.8186 25.6989 21.4923 26.5808C23.4915 29.196 27.5465 29.4971 29.9576 27.2124C32.0928 25.1895 32.0784 21.9508 29.9255 19.9487C27.8593 18.0273 24.5465 17.9252 22.3511 19.7289C21.1641 20.7037 20.5088 21.9727 20.4722 23.297ZM23.5923 25.2921C24.251 25.9981 25.0676 26.3212 25.7512 26.3304C26.743 26.3304 27.4261 26.1048 27.9955 25.6751C29.4575 24.5717 29.6199 22.5206 28.3486 21.2251C27.0491 19.9013 24.8331 19.9399 23.5801 21.3087C22.5378 22.4473 22.54 24.1639 23.5923 25.2921Z" fill="black"/>
<path fill-rule="evenodd" clip-rule="evenodd" d="M10.3701 0.606934C4.84729 0.606934 0.370117 5.08409 0.370117 10.6069V35.6069C0.370117 41.1298 4.84729 45.6069 10.3701 45.6069H35.3701C40.8929 45.6069 45.3701 41.1298 45.3701 35.6069V10.6069C45.3701 5.08409 40.8929 0.606934 35.3701 0.606934H10.3701ZM24.6108 15.6278L24.5215 15.5559L24.4771 15.5199C24.3846 15.445 24.3076 15.3827 24.2317 15.3192L23.6332 14.8196C22.9373 14.2389 22.2413 13.6582 21.5471 13.0754C20.9235 12.5523 20.9484 11.8301 21.6021 11.3462C22.2418 10.8732 23.1477 10.8847 23.7676 11.3796C24.4419 11.9178 25.1165 12.4557 25.7911 12.9935C27.781 14.58 29.7709 16.1666 31.7545 17.7608C33.4172 19.0973 34.5111 20.8174 34.876 22.9913C35.2717 25.3528 34.7146 27.4818 33.3091 29.357C31.8199 31.3435 29.8296 32.4815 27.4506 32.864C24.7312 33.3006 22.2363 32.6938 20.0408 30.9472C18.5134 29.7325 17.4705 28.1561 17.0531 26.1817C16.9855 25.8611 16.9695 25.5287 16.9535 25.1963C16.9464 25.0489 16.9393 24.9015 16.9277 24.7552C16.9253 24.7238 16.9246 24.6922 16.9247 24.6583C16.9247 24.6358 16.9252 24.6123 16.9257 24.5873C16.9261 24.5561 16.9266 24.5225 16.9266 24.4853L16.8726 24.5268L16.8514 24.5429C16.8073 24.5766 16.7704 24.6046 16.7354 24.6347L16.182 25.1053C14.8463 26.2415 13.5107 27.3776 12.1764 28.516C11.7722 28.8609 11.3314 29.1124 10.8014 29.173C9.45691 29.3264 8.63147 28.1734 9.1626 26.8761C9.34277 26.436 9.6394 26.0951 10.007 25.8131C11.8851 24.3701 13.7626 22.9261 15.6401 21.4821L18.7501 19.0904C18.8167 19.0391 18.8821 18.986 18.9325 18.8874H18.7058L14.1351 18.8925C13.7316 18.8925 13.3645 18.7806 13.0563 18.5003C12.2778 17.7943 12.402 16.549 13.3091 15.9722C13.7371 15.6999 14.2122 15.629 14.7023 15.629C17.215 15.6313 19.7281 15.6342 22.2407 15.637L24.3853 15.6388C24.4185 15.6388 24.4519 15.6368 24.5005 15.6339C24.5304 15.6321 24.566 15.63 24.6108 15.6278Z" fill="black"/>
</svg>
