<svg width="35" height="45" viewBox="0 0 35 45" fill="none" xmlns="http://www.w3.org/2000/svg">
<path d="M15.7377 40.6883H18.6313C19.1566 40.6883 19.5849 41.1166 19.5849 41.6419V43.9595C19.5849 44.4835 19.1566 44.9119 18.6313 44.9119H15.7377C15.2136 44.9119 14.7852 44.4835 14.7852 43.9595V41.6419C14.7852 41.1166 15.2136 40.6883 15.7377 40.6883ZM3.69603 12.79C3.73224 19.9435 9.80751 31.102 15.4234 38.803H15.976C11.7052 31.0125 8.0627 21.4065 8.03053 13.8357C8.00056 6.96691 10.8061 2.60807 14.5926 0.120498C13.752 0.198721 12.9099 0.315352 12.0754 0.475752C7.40581 2.33253 3.66255 6.16438 3.69603 12.79ZM16.0568 0.0221484C13.8686 2.96692 12.1806 7.14234 12.1957 13.2012C12.2158 21.1094 14.0659 30.5095 16.4519 38.803H17.9182C20.3042 30.5096 22.1543 21.1094 22.1745 13.2012C22.1895 7.14234 20.5016 2.96692 18.3134 0.0221484C17.5619 -0.00738281 16.8083 -0.00738281 16.0568 0.0221484ZM30.6741 12.79C30.6379 19.9435 24.5627 31.102 18.9467 38.803H18.3942C22.6649 31.0125 26.3075 21.4065 26.3392 13.8357C26.3696 6.967 23.5641 2.60807 19.7776 0.120498C20.6181 0.198721 21.4603 0.315352 22.2936 0.475752C26.9643 2.33253 30.7074 6.16438 30.6741 12.79ZM19.328 38.803C25.6145 32.1875 32.7468 21.1296 32.7939 12.6087C32.8225 7.38325 30.279 3.91799 26.7162 1.80176C31.0813 3.67453 34.4021 7.13101 34.37 12.7491C34.3188 21.4041 26.0232 32.8381 19.4373 38.803H19.328ZM15.0422 38.803C8.75563 32.1876 1.6234 21.1296 1.5762 12.6087C1.54772 7.38325 4.09014 3.91799 7.65296 1.80176C3.28901 3.67462 -0.0319363 7.13109 0.000231707 12.7491C0.0514719 21.4041 8.34712 32.8381 14.9328 38.803H15.0422Z" fill="black"/>
</svg>
