<svg width="30" height="45" viewBox="0 0 30 45" fill="none" xmlns="http://www.w3.org/2000/svg">
<path d="M0 7.35577C0 3.29329 3.29329 0 7.35577 0H14.7115V14.7115H7.35577C3.29329 14.7115 0 11.4182 0 7.35577Z" fill="black"/>
<path d="M0 22.5C0 18.4375 3.29329 15.1442 7.35577 15.1442H14.7115V29.8558H7.35577C3.29329 29.8558 0 26.5625 0 22.5Z" fill="black"/>
<path d="M22.5 15.1442C18.4375 15.1442 15.1442 18.4375 15.1442 22.5C15.1442 26.5625 18.4375 29.8558 22.5 29.8558C26.5625 29.8558 29.8558 26.5625 29.8558 22.5C29.8558 18.4375 26.5625 15.1442 22.5 15.1442Z" fill="black"/>
<path d="M29.8558 7.35577C29.8558 3.29329 26.5625 0 22.5 0H15.1442V14.7115H22.5C26.5625 14.7115 29.8558 11.4182 29.8558 7.35577Z" fill="black"/>
<path d="M7.35577 30.2885C3.29329 30.2885 0 33.5818 0 37.6442C0 41.7067 3.29329 45 7.35577 45H14.7115V30.2885H7.35577Z" fill="black"/>
</svg>
