<svg width="45" height="45" viewBox="0 0 45 45" fill="none" xmlns="http://www.w3.org/2000/svg">
<path d="M16.0623 22H13.1103V16.696H16.0623C17.1343 16.696 17.9023 16.936 18.3663 17.416C18.8463 17.88 19.0863 18.528 19.0863 19.36C19.0863 20.176 18.8463 20.824 18.3663 21.304C17.9023 21.768 17.1343 22 16.0623 22Z" fill="black"/>
<path fill-rule="evenodd" clip-rule="evenodd" d="M10 0C4.47715 0 0 4.47715 0 10V35C0 40.5228 4.47715 45 10 45H35C40.5228 45 45 40.5228 45 35V10C45 4.47715 40.5228 0 35 0H10ZM10.0382 14.2V31H13.1103V24.496H16.2542C17.6303 24.496 18.7583 24.264 19.6383 23.8C20.5182 23.32 21.1663 22.696 21.5823 21.928C21.9983 21.144 22.2063 20.288 22.2063 19.36C22.2063 18.384 21.9903 17.504 21.5583 16.72C21.1263 15.936 20.4703 15.32 19.5903 14.872C18.7103 14.424 17.5983 14.2 16.2542 14.2H10.0382ZM26.6804 30.784C27.4804 31.12 28.4084 31.288 29.4644 31.288C30.4884 31.288 31.3764 31.12 32.1284 30.784C32.8804 30.448 33.4564 29.984 33.8564 29.392C34.2564 28.8 34.4484 28.136 34.4324 27.4C34.4324 26.552 34.2244 25.904 33.8084 25.456C33.3924 24.992 32.8324 24.648 32.1284 24.424C31.4404 24.184 30.6804 23.968 29.8484 23.776C29.0804 23.6 28.4644 23.408 28.0004 23.2C27.5364 22.992 27.3044 22.712 27.3044 22.36C27.3044 22.024 27.4564 21.744 27.7604 21.52C28.0804 21.296 28.5284 21.184 29.1044 21.184C30.2564 21.184 30.9204 21.624 31.0964 22.504H34.0004C33.8404 21.352 33.3364 20.448 32.4884 19.792C31.6564 19.136 30.5364 18.808 29.1284 18.808C27.6084 18.808 26.4244 19.168 25.5764 19.888C24.7444 20.608 24.3284 21.496 24.3284 22.552C24.3284 23.128 24.4644 23.616 24.7364 24.016C25.0084 24.4 25.3604 24.72 25.7924 24.976C26.2404 25.216 26.7284 25.416 27.2564 25.576C27.7844 25.736 28.3044 25.872 28.8164 25.984C29.6164 26.16 30.2404 26.344 30.6884 26.536C31.1364 26.712 31.3604 27.056 31.3604 27.568C31.3604 27.92 31.2004 28.232 30.8804 28.504C30.5764 28.776 30.0884 28.912 29.4164 28.912C28.7444 28.912 28.1924 28.752 27.7604 28.432C27.3444 28.096 27.0884 27.696 26.9924 27.232H23.8964C23.9924 28.032 24.2804 28.736 24.7604 29.344C25.2404 29.952 25.8804 30.432 26.6804 30.784Z" fill="black"/>
</svg>
