<svg width="45" height="45" viewBox="0 0 45 45" fill="none" xmlns="http://www.w3.org/2000/svg">
<path d="M21.2347 24.712H16.3627L18.7867 17.728L21.2347 24.712Z" fill="black"/>
<path fill-rule="evenodd" clip-rule="evenodd" d="M10 0C4.47715 0 0 4.47715 0 10V35C0 40.5228 4.47715 45 10 45H35C40.5228 45 45 40.5228 45 35V10C45 4.47715 40.5228 0 35 0H10ZM17.0827 14.2L10.9387 31H14.1547L15.5227 27.112H22.0747L23.4187 31H26.6827L20.5387 14.2H17.0827ZM29.0388 16.744C29.4068 17.08 29.8708 17.248 30.4308 17.248C30.9908 17.248 31.4468 17.08 31.7988 16.744C32.1668 16.408 32.3508 15.984 32.3508 15.472C32.3508 14.96 32.1668 14.544 31.7988 14.224C31.4468 13.888 30.9908 13.72 30.4308 13.72C29.8708 13.72 29.4068 13.888 29.0388 14.224C28.6868 14.544 28.5108 14.96 28.5108 15.472C28.5108 15.984 28.6868 16.408 29.0388 16.744ZM28.8948 19.096V31H31.9668V19.096H28.8948Z" fill="black"/>
</svg>
