<svg width="45" height="45" viewBox="0 0 45 45" fill="none" xmlns="http://www.w3.org/2000/svg">
<path d="M27.4399 27.616C26.8159 28.272 26.0079 28.6 25.0159 28.6C24.0399 28.6 23.2319 28.264 22.5919 27.592C21.9519 26.92 21.6319 26.064 21.6319 25.024C21.6319 23.984 21.9519 23.136 22.5919 22.48C23.2319 21.824 24.0399 21.496 25.0159 21.496C26.0079 21.496 26.8159 21.832 27.4399 22.504C28.0799 23.16 28.3999 24.008 28.3999 25.048C28.3999 26.088 28.0799 26.944 27.4399 27.616Z" fill="black"/>
<path fill-rule="evenodd" clip-rule="evenodd" d="M10 0C4.47715 0 0 4.47715 0 10V35C0 40.5228 4.47715 45 10 45H35C40.5228 45 45 40.5228 45 35V10C45 4.47715 40.5228 0 35 0H10ZM12.6398 14.2V31H15.7118V14.2H12.6398ZM21.3679 30.472C22.2479 31.016 23.2479 31.288 24.3679 31.288C25.3759 31.288 26.1919 31.088 26.8159 30.688C27.4559 30.288 27.9679 29.824 28.3519 29.296L28.6879 31H31.4239V13.72H28.3519V20.728C27.9359 20.12 27.3919 19.648 26.7199 19.312C26.0479 18.976 25.2639 18.808 24.3679 18.808C23.2479 18.808 22.2479 19.08 21.3679 19.624C20.4879 20.152 19.7919 20.888 19.2799 21.832C18.7679 22.76 18.5119 23.824 18.5119 25.024C18.5119 26.224 18.7679 27.296 19.2799 28.24C19.7919 29.184 20.4879 29.928 21.3679 30.472Z" fill="black"/>
</svg>
