<svg width="46" height="45" viewBox="0 0 46 45" fill="none" xmlns="http://www.w3.org/2000/svg">
<path d="M18.4792 22H15.5272V16.696H18.4792C19.5512 16.696 20.3192 16.936 20.7832 17.416C21.2632 17.88 21.5032 18.528 21.5032 19.36C21.5032 20.176 21.2632 20.824 20.7832 21.304C20.3192 21.768 19.5512 22 18.4792 22Z" fill="black"/>
<path fill-rule="evenodd" clip-rule="evenodd" d="M10.3701 0C4.84727 0 0.370117 4.47715 0.370117 10V35C0.370117 40.5228 4.84727 45 10.3701 45H35.3701C40.893 45 45.3701 40.5228 45.3701 35V10C45.3701 4.47715 40.893 0 35.3701 0H10.3701ZM12.4552 14.2V31H15.5272V24.496H18.6712C20.0472 24.496 21.1752 24.264 22.0552 23.8C22.9352 23.32 23.5832 22.696 23.9992 21.928C24.4152 21.144 24.6232 20.288 24.6232 19.36C24.6232 18.384 24.4072 17.504 23.9752 16.72C23.5432 15.936 22.8872 15.32 22.0072 14.872C21.1272 14.424 20.0152 14.2 18.6712 14.2H12.4552ZM26.9614 19.096V31H30.0334V25.576C30.0334 24.664 30.1774 23.952 30.4654 23.44C30.7694 22.928 31.1854 22.568 31.7134 22.36C32.2414 22.152 32.8414 22.048 33.5134 22.048H34.3774V18.808C33.3694 18.808 32.4894 19.04 31.7374 19.504C31.0014 19.952 30.4174 20.56 29.9854 21.328L29.6974 19.096H26.9614Z" fill="black"/>
</svg>
