<svg width="45" height="45" viewBox="0 0 45 45" fill="none" xmlns="http://www.w3.org/2000/svg">
<path d="M32.2524 27.616C31.6284 28.272 30.8204 28.6 29.8284 28.6C28.8524 28.6 28.0444 28.264 27.4044 27.592C26.7644 26.92 26.4444 26.064 26.4444 25.024C26.4444 23.984 26.7644 23.136 27.4044 22.48C28.0444 21.824 28.8524 21.496 29.8284 21.496C30.8204 21.496 31.6284 21.832 32.2524 22.504C32.8924 23.16 33.2124 24.008 33.2124 25.048C33.2124 26.088 32.8924 26.944 32.2524 27.616Z" fill="black"/>
<path fill-rule="evenodd" clip-rule="evenodd" d="M10 0C4.47715 0 0 4.47715 0 10V35C0 40.5228 4.47715 45 10 45H35C40.5228 45 45 40.5228 45 35V10C45 4.47715 40.5228 0 35 0H10ZM13.2673 22.504L8.01131 31H11.4673L14.9233 25.072L18.7393 31H22.2673L16.8913 22.648L22.1473 14.2H18.6913L15.2353 20.056L11.4673 14.2H7.93931L13.2673 22.504ZM26.1804 30.472C27.0604 31.016 28.0604 31.288 29.1804 31.288C30.1884 31.288 31.0044 31.088 31.6284 30.688C32.2684 30.288 32.7804 29.824 33.1644 29.296L33.5004 31H36.2364V13.72H33.1644V20.728C32.7484 20.12 32.2044 19.648 31.5324 19.312C30.8604 18.976 30.0764 18.808 29.1804 18.808C28.0604 18.808 27.0604 19.08 26.1804 19.624C25.3004 20.152 24.6044 20.888 24.0924 21.832C23.5804 22.76 23.3244 23.824 23.3244 25.024C23.3244 26.224 23.5804 27.296 24.0924 28.24C24.6044 29.184 25.3004 29.928 26.1804 30.472Z" fill="black"/>
</svg>
