<svg width="45" height="44" viewBox="0 0 45 44" fill="none" xmlns="http://www.w3.org/2000/svg">
<path d="M43.8276 31.181C43.8276 31.181 38.2418 46.2443 19.0113 42.7376C18.7087 42.6813 18.4185 42.5761 18.1246 42.4872C18.0559 42.4671 17.9864 42.4451 17.9177 42.4254C17.629 42.3356 17.3432 42.2435 17.0591 42.1444C17.0266 42.1331 16.9956 42.1225 16.9626 42.1108C16.7039 42.0198 16.4465 41.9232 16.1925 41.8257C16.126 41.7997 16.0598 41.7745 15.9936 41.7474C15.7199 41.6393 15.4476 41.5263 15.1783 41.4083C15.1286 41.3864 15.0807 41.3644 15.0302 41.3422C14.7944 41.2373 14.5616 41.1287 14.3307 41.0183C14.2708 40.9879 14.2105 40.9598 14.1501 40.9313C14.1172 40.9148 14.0818 40.8984 14.0482 40.8816C13.8991 40.8071 13.7535 40.7297 13.6067 40.6528C13.4934 40.5943 13.3783 40.5374 13.2657 40.477C13.0577 40.3637 12.8527 40.2485 12.6487 40.1309C12.573 40.0877 12.4966 40.046 12.4217 40.0025C12.1446 39.8396 11.8705 39.6703 11.6004 39.4992C11.524 39.4502 11.4484 39.3984 11.3731 39.3478C11.197 39.2338 11.0208 39.1198 10.8482 39.0007C10.83 38.9882 10.8125 38.9751 10.7945 38.9623C10.7276 38.9169 10.6641 38.8705 10.5976 38.8223C10.4155 38.6958 10.2354 38.5664 10.057 38.4348C9.97082 38.3698 9.88486 38.3044 9.79935 38.2389C9.6378 38.1157 9.47705 37.9896 9.31762 37.8624C9.23834 37.7989 9.15792 37.736 9.07864 37.6717C8.88423 37.5115 8.69043 37.3485 8.50076 37.1841C8.4649 37.1527 8.42694 37.1219 8.39037 37.0891C8.38668 37.0876 8.38413 37.0847 8.38009 37.0813C8.16485 36.8927 7.95356 36.6993 7.74411 36.502C7.68092 36.4443 7.61799 36.3825 7.55444 36.3219C7.398 36.1716 7.24305 36.0202 7.09065 35.8668C7.02736 35.8046 6.96487 35.7418 6.90423 35.6788C6.70727 35.4763 6.51277 35.2736 6.32275 35.0662C6.3158 35.0568 6.30886 35.0513 6.30051 35.0422C6.29717 35.0386 6.29242 35.0337 6.28917 35.0297C6.09476 34.8155 5.90395 34.5966 5.71718 34.3769C5.66488 34.3151 5.61233 34.2519 5.56073 34.1895C5.42151 34.0217 5.28441 33.8543 5.14993 33.6847C5.09403 33.6141 5.03814 33.5429 4.98294 33.472C4.83203 33.2771 4.68288 33.0809 4.53848 32.8813C4.51141 32.844 4.48258 32.8075 4.45656 32.7709C4.45103 32.7647 4.44637 32.7581 4.44268 32.7519C4.27533 32.5205 4.11379 32.2848 3.95515 32.0487C3.90584 31.9763 3.85943 31.9017 3.81189 31.8271C3.6971 31.6525 3.58451 31.4777 3.47562 31.3008C3.41866 31.2102 3.36452 31.1193 3.30968 31.0281C3.21063 30.863 3.11377 30.6977 3.01982 30.5311C2.96611 30.4368 2.91312 30.3447 2.86117 30.2478C2.83226 30.1967 2.80088 30.1439 2.77275 30.0903C2.72336 30.001 2.6788 29.9079 2.63055 29.8169C2.55602 29.674 2.48034 29.5304 2.40836 29.3849C-0.628876 23.3122 -1.12449 15.8766 2.85203 10.1612L5.9558 6.22468C2.45398 12.9929 4.02783 21.2345 8.40865 27.2094C8.56686 27.427 8.72884 27.6415 8.89434 27.856C8.94558 27.9207 8.99699 27.9858 9.04823 28.0479C9.18596 28.2233 9.32667 28.3966 9.46888 28.5681C9.52012 28.6283 9.57013 28.6875 9.62242 28.7496C9.81253 28.9741 10.0069 29.197 10.2065 29.4144C10.216 29.425 10.2252 29.4346 10.2343 29.4448C10.4229 29.6506 10.6151 29.8537 10.8107 30.0541C10.8713 30.1155 10.9331 30.1762 10.9949 30.2376C11.1485 30.3943 11.3053 30.5465 11.4646 30.6977C11.5249 30.7577 11.5855 30.8154 11.6481 30.875C11.8634 31.0753 12.0805 31.2745 12.3016 31.469C12.3246 31.4891 12.3484 31.5076 12.3695 31.5263C12.5742 31.7043 12.7815 31.8776 12.9913 32.0501C13.0644 32.1097 13.1389 32.1692 13.2135 32.2284C13.3783 32.3611 13.545 32.4902 13.7128 32.6184C13.7928 32.6798 13.875 32.7423 13.9581 32.8037C14.1404 32.9389 14.3247 33.072 14.5107 33.2036C14.5739 33.2463 14.6354 33.2928 14.6993 33.3359C14.8916 33.4689 15.0876 33.5983 15.2842 33.7248C15.358 33.7738 15.4311 33.825 15.5056 33.8725C15.7769 34.0443 16.051 34.2131 16.328 34.3761C16.3993 34.4171 16.4706 34.4554 16.5407 34.495C16.7498 34.6159 16.9593 34.735 17.1727 34.8491C17.2882 34.9133 17.407 34.9715 17.5239 35.0333C17.6986 35.1232 17.8733 35.2146 18.0502 35.3008C18.1171 35.3337 18.1821 35.3645 18.2476 35.3955C18.4731 35.504 18.6993 35.6086 18.9281 35.7123C18.9822 35.7358 19.0348 35.7602 19.0893 35.7836C19.3558 35.9002 19.6251 36.0121 19.8967 36.1191C19.9664 36.1469 20.0363 36.1736 20.1065 36.2014C20.3535 36.2972 20.6024 36.3901 20.8542 36.4788C20.8933 36.4927 20.9325 36.507 20.9704 36.5208C21.2511 36.6174 21.5336 36.7095 21.8184 36.7965C21.8911 36.8191 21.9639 36.8411 22.0384 36.863C22.33 36.9492 22.6199 37.0425 22.9189 37.1101C30.8091 38.9058 39.1362 37.2932 43.8276 31.181ZM15.9908 21.5243C16.4221 22.1417 16.8994 22.8766 17.4714 23.3728C17.6783 23.6011 17.8954 23.8236 18.1165 24.0426C18.1721 24.0995 18.2295 24.1544 18.2869 24.2103C18.501 24.4187 18.7203 24.6237 18.9455 24.8229C18.955 24.8298 18.9634 24.8394 18.9726 24.846C18.9751 24.8489 18.9773 24.8496 18.9792 24.8525C19.2292 25.0711 19.4873 25.282 19.7489 25.4892C19.8071 25.5338 19.8648 25.5802 19.9236 25.6256C20.1864 25.8269 20.4544 26.025 20.7292 26.2136C20.7377 26.2194 20.7442 26.2253 20.7526 26.2311C20.8736 26.3152 20.9971 26.3934 21.1196 26.4738C21.1788 26.5119 21.2347 26.5527 21.2939 26.5886C21.4905 26.7147 21.689 26.8371 21.8911 26.9548C21.9196 26.9724 21.9474 26.987 21.9755 27.0034C22.1491 27.1036 22.3264 27.2027 22.5033 27.2984C22.5647 27.3328 22.6276 27.3634 22.6904 27.3963C22.8125 27.4599 22.9353 27.5253 23.0596 27.5871C23.0782 27.5959 23.0976 27.6046 23.1156 27.6123C23.3689 27.737 23.6243 27.8575 23.8857 27.9708C23.9412 27.9957 23.999 28.0176 24.0556 28.0411C24.2644 28.1295 24.4749 28.2161 24.6865 28.2973C24.7764 28.3313 24.8675 28.3638 24.9566 28.3963C25.1492 28.4679 25.3418 28.5331 25.5363 28.5981C25.6244 28.6262 25.7106 28.6551 25.7987 28.6821C26.075 28.7677 26.3484 28.8766 26.6367 28.9241C41.4844 31.3842 44.9121 19.9524 44.9121 19.9524C41.8219 24.4026 35.838 26.5258 29.4524 24.8687C29.1691 24.794 28.8896 24.7126 28.6122 24.6252C28.5266 24.5995 28.4432 24.5718 28.3588 24.5436C28.1615 24.4796 27.9651 24.4117 27.7704 24.3408C27.6816 24.3083 27.5925 24.2757 27.505 24.2421C27.2919 24.1602 27.081 24.0754 26.8724 23.987C26.815 23.9621 26.7576 23.9402 26.7017 23.9146C26.4397 23.8004 26.1816 23.6805 25.9272 23.5548C25.796 23.4907 25.6677 23.423 25.5383 23.3567C25.4637 23.3183 25.3888 23.2798 25.3142 23.2414C25.149 23.1516 24.9846 23.0585 24.8226 22.9642C24.7842 22.942 24.744 22.921 24.7049 22.8978C24.5042 22.7801 24.3061 22.6589 24.1099 22.5345C24.0495 22.496 23.991 22.454 23.9308 22.4144C23.8009 22.3305 23.672 22.2456 23.5447 22.1593C23.2714 21.9707 23.0053 21.7727 22.7425 21.5724C22.6818 21.5247 22.6215 21.4781 22.5615 21.4304C19.7669 19.2234 17.5517 16.2076 16.4976 12.7881C15.3941 9.24152 15.6321 5.26052 17.5447 2.02975L15.195 5.34656C12.3196 9.48489 12.4757 15.0245 14.7187 19.4012C15.0954 20.135 15.5182 20.8465 15.9908 21.5243ZM31.6406 16.4045C31.763 16.4502 31.8851 16.4907 32.009 16.5327C32.0631 16.5493 32.1171 16.5679 32.1716 16.584C32.3464 16.639 32.52 16.7028 32.7006 16.7367C40.8994 18.3208 43.1226 12.5295 43.7148 11.6772C41.7667 14.4818 38.4936 15.1551 34.4765 14.1805C34.1596 14.103 33.811 13.9884 33.5046 13.8802C33.1124 13.7404 32.7269 13.581 32.3511 13.4007C31.6374 13.058 30.9582 12.6423 30.3274 12.1663C26.7335 9.4391 24.5011 4.23668 26.8461 0L25.577 1.74911C23.8819 4.24397 23.7156 7.34229 24.8914 10.0979C26.1319 13.0224 28.6739 15.317 31.6406 16.4045Z" fill="black"/>
</svg>
