<svg width="46" height="45" viewBox="0 0 46 45" fill="none" xmlns="http://www.w3.org/2000/svg">
<path d="M33.397 42.1894C33.2297 42.278 33.2437 42.3061 33.4041 42.2246C33.4561 42.2035 33.4997 42.1739 33.5377 42.1388C33.5377 42.1092 33.5377 42.1092 33.397 42.1894ZM33.7345 42.0066C33.6544 42.0727 33.6544 42.0727 33.75 42.0291C33.8006 41.9996 33.8456 41.9714 33.8456 41.963C33.8456 41.925 33.8231 41.9335 33.7345 42.0066ZM33.9539 41.8744C33.8738 41.9405 33.8738 41.9405 33.9694 41.8969C34.0214 41.8674 34.065 41.8364 34.065 41.8294C34.065 41.7942 34.0425 41.8013 33.9539 41.8744ZM34.1761 41.7436C34.0959 41.8097 34.0959 41.8097 34.1888 41.7647C34.2408 41.7366 34.2844 41.7071 34.2844 41.6986C34.2844 41.6635 34.2619 41.6705 34.1761 41.7436ZM34.4756 41.5453C34.3223 41.648 34.2689 41.7141 34.4095 41.641C34.5037 41.5833 34.6641 41.4567 34.6359 41.4567C34.5755 41.4792 34.5248 41.5172 34.4742 41.5453H34.4756ZM21.0277 0.010336C20.925 0.0173672 20.617 0.0454922 20.347 0.0679922C13.9514 0.647367 7.96781 4.08987 4.17516 9.39284C2.07844 12.2996 0.717188 15.676 0.203906 19.2211C0.0225 20.4586 0 20.8242 0 22.5019C0 24.1781 0.0225 24.5381 0.203906 25.7756C1.42875 34.2286 7.44188 41.3246 15.5925 43.9542C17.0592 44.4225 18.5962 44.746 20.347 44.9442C21.0277 45.0174 23.9709 45.0174 24.6516 44.9442C27.6778 44.6067 30.233 43.86 32.7614 42.5705C33.1495 42.3736 33.2227 42.3216 33.1706 42.278C31.9331 40.6453 30.7181 39.0113 29.5017 37.3631L25.9059 32.5074L21.4017 25.8347C19.8998 23.6016 18.3923 21.3741 16.8609 19.1635C16.8455 19.1635 16.8258 22.1292 16.8173 25.7461C16.8019 32.0813 16.8019 32.3386 16.7217 32.4849C16.6416 32.6606 16.5094 32.8069 16.3336 32.8885C16.1944 32.9546 16.0692 32.9686 15.4041 32.9686H14.6433L14.445 32.8449C14.3213 32.7647 14.2186 32.6536 14.1525 32.5228L14.0569 32.3246L14.0794 14.6874L14.2186 14.5116C14.3072 14.4033 14.4169 14.3147 14.5406 14.2486C14.7248 14.16 14.798 14.146 15.5588 14.146C16.4517 14.146 16.5994 14.1811 16.8342 14.4385C18.6567 17.1553 20.4736 19.8792 22.2609 22.6116C25.1845 27.0441 29.1755 33.0924 31.1372 36.0596L34.7048 41.4581L34.8806 41.3414C36.5948 40.1981 38.1544 38.8369 39.5002 37.2844C42.3352 34.0388 44.1745 30.0464 44.7975 25.7855C44.9789 24.548 45.0014 24.181 45.0014 22.5047C45.0014 20.8271 44.9789 20.4685 44.7975 19.231C43.5727 10.778 37.5595 3.68205 29.4089 1.05096C27.8845 0.568617 26.3166 0.239555 24.7289 0.0708047C24.3028 0.027211 21.3947 -0.0248203 21.0291 0.0131485L21.0277 0.010336ZM30.2344 13.6186C30.4467 13.7199 30.607 13.9111 30.6802 14.1305C30.7181 14.2486 30.7252 16.6941 30.7181 22.2024L30.7027 30.1111L29.3119 27.9736L27.9127 25.8347V20.093C27.9127 16.3706 27.9281 14.2838 27.9478 14.1811C28.0139 13.9463 28.1742 13.7494 28.388 13.6256C28.5623 13.5371 28.6298 13.53 29.3259 13.53C29.977 13.53 30.0881 13.5371 30.2344 13.6186Z" fill="black"/>
</svg>
