<svg width="45" height="45" viewBox="0 0 45 45" fill="none" xmlns="http://www.w3.org/2000/svg">
<path d="M40.1786 0H4.82143C2.1596 0 0 2.15959 0 4.82141V40.1786C0 42.8404 2.1596 45 4.82143 45H40.1786C42.8404 45 45 42.8404 45 40.1786V4.82141C45 2.15959 42.8404 0 40.1786 0ZM24.4888 35.096C24.4888 39.4755 21.9174 41.4743 18.1708 41.4743C14.7857 41.4743 12.827 39.7266 11.8225 37.6071L15.2679 35.5279C15.9308 36.7031 16.5335 37.6976 17.99 37.6976C19.3761 37.6976 20.26 37.1551 20.26 35.0357V20.6618H24.4888V35.096ZM34.4933 41.4743C30.5658 41.4743 28.0246 39.606 26.7891 37.1552L30.2344 35.1663C31.1384 36.6429 32.3237 37.7377 34.4029 37.7377C36.1507 37.7377 37.2757 36.8638 37.2757 35.6484C37.2757 34.202 36.1306 33.6897 34.192 32.8359L33.1373 32.3839C30.0837 31.0882 28.0647 29.4509 28.0647 26.0056C28.0647 22.8315 30.4855 20.4208 34.2522 20.4208C36.9442 20.4208 38.8728 21.3549 40.2589 23.8058L36.9643 25.9152C36.2411 24.6194 35.4576 24.1071 34.2422 24.1071C33.0067 24.1071 32.2232 24.8906 32.2232 25.9152C32.2232 27.1808 33.0067 27.6931 34.8248 28.4866L35.8795 28.9386C39.4754 30.4755 41.4944 32.0525 41.4944 35.5882C41.4944 39.3851 38.5011 41.4743 34.4933 41.4743Z" fill="black"/>
</svg>
