<svg width="45" height="46" viewBox="0 0 45 46" fill="none" xmlns="http://www.w3.org/2000/svg">
<path fill-rule="evenodd" clip-rule="evenodd" d="M42.2437 11.7048C42.3405 12.4226 42.3945 13.1895 42.3945 14.0175C42.3945 17.973 42.0277 18.1958 33.8107 41.9491C40.5 38.0476 45 30.8003 45 22.5C45 18.5872 44.001 14.9088 42.2437 11.7048ZM22.896 24.4688L16.1438 44.0837C20.7 45.4247 25.5285 45.2882 29.9722 43.7267C29.9115 43.6299 29.8575 43.526 29.8125 43.4158L22.896 24.4688ZM37.6898 21.364C37.6898 18.583 36.6907 16.6563 35.8335 15.1578C34.695 13.3038 33.624 11.7362 33.624 9.8822C33.624 7.81445 35.1945 5.88867 37.404 5.88867C37.503 5.88867 37.5975 5.90175 37.6943 5.90625C33.6915 2.23875 28.359 0 22.5 0C14.6407 0 7.72426 4.03163 3.70126 10.1404C5.13451 10.1854 7.05824 10.2039 11.1465 9.8844C12.3592 9.8124 12.501 11.5938 11.2905 11.7356C11.2905 11.7356 10.071 11.88 8.71425 11.952L16.9087 36.3241L21.8318 21.5552L18.3263 11.9498C17.1158 11.8801 15.9683 11.7356 15.9683 11.7356C14.7555 11.6636 14.8973 9.8102 16.11 9.8822C20.7608 10.24 23.1412 10.267 28.0327 9.8822C29.2455 9.8102 29.3895 11.5916 28.1767 11.7356C28.1767 11.7356 26.955 11.8801 25.6005 11.9498L33.732 36.1373C36.9428 25.4093 37.6898 23.614 37.6898 21.364ZM0 22.5C0 31.4055 5.175 39.1027 12.681 42.75L1.94849 13.3429C0.699744 16.1419 0 19.2375 0 22.5Z" fill="black"/>
</svg>
