<svg width="52" height="52" viewBox="0 0 52 52" fill="none" xmlns="http://www.w3.org/2000/svg">
<path d="M52 26C52 40.3594 40.3594 52 26 52C11.6406 52 0 40.3594 0 26C0 11.6406 11.6406 0 26 0C40.3594 0 52 11.6406 52 26Z" fill="white"/>
<path d="M41.1512 47.1314L28.9663 27.1122V47.2787H21.3738V17.8692H31.6237L43.9826 38.6239L50.3134 27.9963H51.9242C51.3259 35.8773 47.2139 42.7766 41.1512 47.1314Z" fill="black"/>
<path d="M2.75537 14.3384H9.71623V37.3832H17.4932V14.3384H32.1829V8L7.23781 8.00023C5.44565 9.86779 3.92962 12.0024 2.75537 14.3384Z" fill="black"/>
</svg>
